<svg xmlns="http://www.w3.org/2000/svg" width="81.689" height="81.689" viewBox="0 0 81.689 81.689">
  <g id="Group_49" data-name="Group 49" transform="translate(-928.999 -168.003)">
    <g id="Group_44" data-name="Group 44">
      <rect id="Rectangle_86" data-name="Rectangle 86" width="77" height="77" rx="10" transform="matrix(0.998, -0.063, 0.063, 0.998, 928.999, 172.845)" fill="#fff"/>
    </g>
    <path id="Path_261" data-name="Path 261" d="M986.2,217.959l-1.061-16.841L953.7,203.1l.349,5.542a10.125,10.125,0,0,1,14.455,12.552l3.724,3.283,8.71-.549a5.624,5.624,0,0,0,5.26-5.968Zm-1.273-20.21a5.624,5.624,0,0,0-5.968-5.26l-20.21,1.274a5.624,5.624,0,0,0-5.26,5.967l.071,1.123L985,198.872Zm-20.711,25.66a7.874,7.874,0,1,1,1.487-1.687l6.087,5.365a1.126,1.126,0,0,1-1.487,1.69l-6.087-5.365Zm.51-6.351a5.626,5.626,0,1,0-1.394,4.073A5.625,5.625,0,0,0,964.726,217.058Z" fill="#0c9"/>
  </g>
</svg>
